<svg xmlns="http://www.w3.org/2000/svg" width="280" height="56" viewBox="0 0 280 56" fill="none"><path d="M61 42L71.8 13H77.16L88.04 42H82.48L80.2 35.56H68.44L66.2 42H61ZM74.28 18.88L69.92 31.32H78.68L74.28 18.88ZM96.2712 30.56V42H91.5112V20.48H96.2712V23.48C97.5112 21.24 99.6312 20 102.511 20C105.831 20 107.791 21.4 108.791 23.8C110.631 21.08 113.151 20 115.791 20C120.871 20 122.831 23.36 122.831 28.48V42H118.071V29.64C118.071 26.72 117.791 23.88 114.271 23.88C110.751 23.88 109.551 26.68 109.551 30.56V42H104.791V29.64C104.791 26.72 104.511 23.88 100.991 23.88C97.4712 23.88 96.2712 26.68 96.2712 30.56ZM141.92 33.52V31.88C135.12 32.52 132.36 33.48 132.36 35.96C132.36 37.84 133.92 38.96 136.32 38.96C139.84 38.96 141.92 37.16 141.92 33.52ZM135.28 42.52C130.6 42.52 127.32 40 127.32 36.08C127.32 30.72 133.92 29.36 141.8 28.56V28.16C141.8 24.48 139.68 23.36 137.32 23.36C134.92 23.36 133.12 24.64 133 27.24H128.32C128.64 22.84 132.28 19.84 137.48 19.84C142.64 19.84 146.68 22.2 146.56 29.08C146.56 30.16 146.48 32.68 146.48 34.64C146.48 37.36 146.72 40.2 147.12 42H142.76C142.6 41.08 142.44 40.56 142.36 39.08C141 41.4 138.44 42.52 135.28 42.52ZM150.534 42V38.36L162.054 24.12H151.334V20.48H167.974V24.12L156.414 38.36H168.254V42H150.534ZM172.739 13H177.499V17.8H172.739V13ZM172.739 20.48H177.499V42H172.739V20.48ZM188.417 20.48V23.48C189.657 21.24 191.937 20 194.937 20C200.137 20 202.257 23.36 202.257 28.48V42H197.497V29.64C197.497 26.72 197.057 23.88 193.417 23.88C189.777 23.88 188.417 26.68 188.417 30.56V42H183.657V20.48H188.417ZM222.291 23.36V20.48H227.051V39.84C227.051 43.36 226.171 45.84 224.451 47.44C222.731 49.04 220.171 49.76 216.811 49.76C212.091 49.76 208.331 47.88 207.611 43.16H212.331C212.771 45.16 214.091 46 216.931 46C219.051 46 220.411 45.4 221.211 44.44C222.011 43.52 222.291 42.2 222.291 40.8V38.28C221.011 40.4 218.771 41.64 215.891 41.64C210.811 41.64 206.531 37.52 206.531 30.8C206.531 24.08 210.811 20 215.891 20C218.771 20 221.011 21.24 222.291 23.36ZM222.491 30.8C222.491 26 220.051 23.8 216.931 23.8C213.771 23.8 211.491 26.48 211.491 30.8C211.491 35.2 213.771 37.88 216.931 37.88C220.051 37.88 222.491 35.64 222.491 30.8ZM240.525 42L251.325 13H256.685L267.565 42H262.005L259.725 35.56H247.965L245.725 42H240.525ZM253.805 18.88L249.445 31.32H258.205L253.805 18.88ZM276.356 13V42H271.276V13H276.356Z" fill="white"></path><g clip-path="url(#clip0_12075_210)"><path fill-rule="evenodd" clip-rule="evenodd" d="M32.4974 29.8721L29.5367 36.6668C28.8692 38.1985 26.7078 38.198 26.0411 36.6659L21.2219 25.5913C20.493 23.9163 18.0688 24.1193 17.6242 25.8901L21.2809 11.1845C21.9431 8.52148 25.585 8.21423 26.6794 10.7291L32.4988 24.1024C33.2991 25.9416 33.2986 28.0334 32.4974 29.8721Z" fill="url(#paint0_linear_12075_210)"></path><path fill-rule="evenodd" clip-rule="evenodd" d="M35.4753 29.8786C36.2741 28.0431 36.2753 25.956 35.4787 24.1199L40.0432 34.609C41.3476 37.6066 41.7437 40.9009 41.2172 44.0871L38.7208 49.8241C38.417 50.5222 37.7308 50.9733 36.9729 50.9733H29.2132C27.8373 50.9733 26.9137 49.5537 27.4651 48.2863L35.4753 29.8786Z" fill="url(#paint1_linear_12075_210)"></path><path fill-rule="evenodd" clip-rule="evenodd" d="M27.4651 5.69664C26.9137 4.42927 27.8373 3.00952 29.2132 3.00952H36.9727C37.7308 3.00952 38.417 3.46068 38.7208 4.1589L47.4002 24.1043C48.2 25.9424 48.2 28.0328 47.4002 29.8709L41.2172 44.0793C41.7437 40.8931 41.3476 37.5988 40.0432 34.6012L27.4651 5.69664Z" fill="#9570FF"></path><path fill-rule="evenodd" clip-rule="evenodd" d="M12.8797 3C12.0042 3 11.241 3.59906 11.0287 4.453L0.0579069 48.5726C-0.243144 49.7833 0.667634 50.9561 1.90889 50.9561H9.90028C10.7758 50.9561 11.5389 50.357 11.7513 49.5031L17.6228 25.8901L17.6259 25.8781L21.2796 11.1845C21.9402 8.5278 25.5664 8.21569 26.6702 10.7111L23.8148 4.14937C23.511 3.45116 22.8248 3 22.0669 3H12.8797Z" fill="#9570FF"></path></g><defs><linearGradient id="paint0_linear_12075_210" x1="27.75" y1="29.0001" x2="21.75" y2="18.5001" gradientUnits="userSpaceOnUse"><stop stop-color="#9570FF"></stop><stop offset="1" stop-color="#6935FF"></stop></linearGradient><linearGradient id="paint1_linear_12075_210" x1="33.25" y1="46.5" x2="38.5557" y2="35.4071" gradientUnits="userSpaceOnUse"><stop stop-color="#9570FF"></stop><stop offset="1" stop-color="#6935FF"></stop></linearGradient><clipPath id="clip0_12075_210"><rect width="48" height="48" fill="white" transform="translate(0 3)"></rect></clipPath></defs></svg>